<?xml version="1.0" encoding="UTF-8"?><!DOCTYPE svg PUBLIC "-//W3C//DTD SVG 1.1//EN" "http://www.w3.org/Graphics/SVG/1.1/DTD/svg11.dtd">
<svg width="24" height="24" viewBox="0 0 24 24" fill="none"  xmlns="http://www.w3.org/2000/svg">
    <path fill="#000000" d="M1.528 9.767a8.239 8.239 0 1 1 16.478 0 8.239 8.239 0 0 1-16.478 0zM9.767.028c-5.379 0-9.74 4.36-9.74 9.74 0 5.378 4.361 9.738 9.74 9.738 2.3 0 4.415-.797 6.08-2.131l3.165 3.156a.75.75 0 0 0 1.06-1.062l-3.128-3.119a9.704 9.704 0 0 0 2.562-6.583c0-5.378-4.36-9.739-9.74-9.739z"/>
</svg>