<?xml version="1.0" encoding="UTF-8"?><!DOCTYPE svg PUBLIC "-//W3C//DTD SVG 1.1//EN" "http://www.w3.org/Graphics/SVG/1.1/DTD/svg11.dtd">
<svg width="16" height="16" viewBox="0 0 16 16" fill="none"  xmlns="http://www.w3.org/2000/svg">
    <path fill="#ffffff" d="M5.854.146a.5.5 0 0 1 .057.638l-.057.07L1.707 5H15.5a.5.5 0 0 1 .09.992L15.5 6H1.707l4.147 4.146a.5.5 0 0 1 .057.638l-.057.07a.5.5 0 0 1-.638.057l-.07-.057-5-5-.011-.013a.503.503 0 0 1-.033-.039l.044.052A.502.502 0 0 1 0 5.5v-.01c0-.022.002-.043.005-.064L0 5.5a.502.502 0 0 1 .089-.284l.013-.018a.503.503 0 0 1 .033-.04l.011-.012 5-5a.5.5 0 0 1 .708 0z"/>
</svg>
