<?xml version="1.0" encoding="UTF-8"?><!DOCTYPE svg PUBLIC "-//W3C//DTD SVG 1.1//EN" "http://www.w3.org/Graphics/SVG/1.1/DTD/svg11.dtd">
<svg width="16" height="16" viewBox="0 0 16 16" fill="none"  xmlns="http://www.w3.org/2000/svg">
    <path fill="#4E3EB8" d="M8 13.738l-3.908 2.147a.937.937 0 0 1-1.292-.42 1.04 1.04 0 0 1-.096-.634l.746-4.547L.29 7.064A1.032 1.032 0 0 1 .272 5.65a.943.943 0 0 1 .547-.292l4.37-.663L7.141.558c.234-.496.808-.699 1.281-.455a.98.98 0 0 1 .435.455l1.954 4.137 4.369.663c.523.08.885.587.809 1.133-.03.218-.128.419-.28.572l-3.16 3.22.746 4.548c.09.544-.26 1.061-.781 1.154a.92.92 0 0 1-.607-.1L8 13.738z"/>
</svg>



