<svg width="176" height="153" viewBox="0 0 176 153" fill="none" xmlns="http://www.w3.org/2000/svg">
<g clip-path="url(#clip0)">
<path d="M17.6135 129H156.871L87.6115 59.8301L17.6135 129Z" fill="#7BB51C"/>
<path d="M14.9527 125.598L25.8021 115.028L22.1883 111.326L15.3739 117.968L3.36948 105.676L-0.666504 109.608L14.9527 125.598Z" fill="black"/>
<path d="M28.1835 112.621L39.3003 101.786L36.2474 98.6629L29.1887 105.54L25.7991 102.069L31.4555 96.5576L28.2609 93.2898L22.6045 98.7984L19.7004 95.8257L26.5269 89.1726L23.476 86.0503L12.3944 96.8488L28.1835 112.621Z" fill="black"/>
<path d="M64.5696 61.2569C60.0862 56.6668 52.3088 57.216 48.5633 60.8664C44.8169 64.5167 42.9049 71.7953 48.1954 77.2116C54.0066 83.16 60.9206 80.9995 64.6671 77.3512C70.1908 71.969 68.2246 64.9986 64.5696 61.2569ZM61.2744 74.2078C58.7945 76.6243 55.7628 75.9688 52.2988 72.4218C49.3876 69.4421 49.5625 66.4483 51.6795 64.3852C53.1351 62.9666 56.0915 61.6976 59.6088 65.2988C63.6216 69.407 63.7543 71.7913 61.2744 74.2078Z" fill="black"/>
<path d="M77.0737 65.0701L81.175 61.0724L75.0049 54.7565L71.3117 39.4102L66.6103 43.9922L69.056 52.6984L60.793 49.6595L56.36 53.9785L70.4472 58.4962L77.0737 65.0701Z" fill="black"/>
<path d="M55.2059 86.4016C55.2059 86.4016 45.224 83.0003 44.7496 83.0826C44.5958 83.1077 46.8937 77.0007 41.7309 74.294C41.7309 74.294 37.8999 72.2229 34.066 75.7016L25.8945 83.7442L41.6474 99.5885L45.8151 95.5275L37.2908 86.8032L51.0704 90.4315L55.2059 86.4016ZM39.7455 84.2261C37.4295 86.4789 37.1169 86.6566 37.1169 86.6566C37.1169 86.6566 33.486 82.94 33.3573 82.8085C33.2287 82.677 35.9538 80.3438 36.3831 79.9252C36.565 79.7475 38.2618 78.6421 39.6661 80.0788C39.6661 80.0788 42.0606 81.9692 39.7455 84.2261Z" fill="black"/>
<path d="M75.801 42.4334L72.156 38.763L88.0687 23L93.2768 28.2436L87.544 39.5119L99.2318 34.2402L104.243 39.2871L88.3301 55.0501L84.4891 51.1828L92.8888 42.8631L81.3981 48.0696L79.0227 45.6772L84.3635 34.2121L75.801 42.4334Z" fill="black"/>
<path d="M103.431 70.2555L92.3973 59.1468L108.311 43.3838L119.376 54.5256L116.161 57.7101L109.229 50.7307L106.636 53.2978L112.104 58.8034L108.756 62.1185L103.322 56.646L99.8441 60.0905L106.711 67.0047L103.431 70.2555Z" fill="black"/>
<path d="M139.813 75.1035L143.913 79.2338L131.872 91.1607L138.608 97.9413L134.736 101.779L123.899 90.8675L139.813 75.1035Z" fill="black"/>
<path d="M137.599 104.665L153.513 88.9019L157.516 92.9317L141.602 108.694L137.599 104.665Z" fill="black"/>
<path d="M148.859 116.004L145.115 112.234L161.03 96.4722L166.465 101.942L161.821 118.308L172.355 107.873L176 111.543L160.087 127.305L155.335 122.523L159.427 105.341L148.859 116.004Z" fill="black"/>
<path d="M132.621 67.8632L122.956 58.1299L107.009 73.8608L111.11 77.989L119.804 69.3771L116.675 83.593L120.872 87.8207C120.872 87.8207 124.182 77.6517 124.283 77.228C124.283 77.228 127.869 79.2008 131.803 75.8225C131.803 75.8225 135.577 72.15 132.621 67.8632ZM126.72 72.4733C126.72 72.4733 124.688 73.8357 122.898 72.0336L120.101 69.084C120.101 69.084 123.48 65.7368 123.906 65.3141C123.906 65.3141 126.51 67.9365 126.835 68.2637C127.16 68.591 129.213 70.1331 126.72 72.4733Z" fill="black"/>
</g>
<defs>
<clipPath id="clip0">
<rect width="176" height="153" fill="white"/>
</clipPath>
</defs>
</svg>
