<svg width="24" height="24" viewBox="0 0 24 24" fill="none" xmlns="http://www.w3.org/2000/svg">
<path fill-rule="evenodd" clip-rule="evenodd" d="M3.93457 9.67494L10.702 13.6473C10.7749 13.69 10.8513 13.7209 10.9291 13.7405V21.4447L4.41723 17.5267C4.11806 17.3467 3.93457 17.0195 3.93457 16.6661V9.67494ZM19.6723 9.56934V16.6661C19.6723 17.0195 19.4888 17.3467 19.1896 17.5267L12.6777 21.4447V13.673C12.6936 13.665 12.7093 13.6564 12.7249 13.6473L19.6723 9.56934Z" fill="white"/>
<path fill-rule="evenodd" clip-rule="evenodd" d="M4.14746 7.74659C4.23012 7.64046 4.33446 7.55077 4.4561 7.4849L11.3413 3.75655C11.6304 3.60003 11.9771 3.60003 12.2661 3.75655L19.1514 7.4849C19.2451 7.53567 19.3286 7.60061 19.3998 7.67631L11.8509 12.1073C11.8013 12.1365 11.7555 12.1698 11.7138 12.2066C11.6721 12.1698 11.6263 12.1365 11.5767 12.1073L4.14746 7.74659Z" fill="#FAB8C4"/>
</svg>
