<svg width="359" height="710" viewBox="0 0 359 710" fill="none" xmlns="http://www.w3.org/2000/svg">
<rect x="3" y="3" width="353" height="704" rx="45" stroke="#27272E" stroke-width="6"/>
<path d="M134.42 179.2C134.42 185.052 138.704 189.168 144.332 189.168C148.672 189.168 152.2 186.872 153.516 182.84H149.008C148.084 184.744 146.404 185.668 144.304 185.668C140.888 185.668 138.452 183.148 138.452 179.2C138.452 175.224 140.888 172.732 144.304 172.732C146.404 172.732 148.084 173.656 149.008 175.532H153.516C152.2 171.528 148.672 169.204 144.332 169.204C138.704 169.204 134.42 173.348 134.42 179.2ZM171.004 181.244C171.004 176.344 167.504 173.236 163.024 173.236C158.544 173.236 155.044 176.344 155.044 181.244C155.044 186.116 158.432 189.252 162.912 189.252C167.42 189.252 171.004 186.116 171.004 181.244ZM159.02 181.244C159.02 178.136 160.896 176.652 162.968 176.652C165.04 176.652 166.972 178.136 166.972 181.244C166.972 184.324 164.984 185.836 162.912 185.836C160.812 185.836 159.02 184.324 159.02 181.244ZM173.04 189H176.96V168.28H173.04V189ZM179.993 189H183.913V168.28H179.993V189ZM185.938 181.188C185.938 186.032 189.074 189.252 192.994 189.252C195.458 189.252 197.222 188.076 198.146 186.732V189H202.094V173.488H198.146V175.7C197.222 174.412 195.514 173.236 193.022 173.236C189.074 173.236 185.938 176.344 185.938 181.188ZM198.146 181.244C198.146 184.184 196.186 185.808 194.03 185.808C191.93 185.808 189.942 184.128 189.942 181.188C189.942 178.248 191.93 176.68 194.03 176.68C196.186 176.68 198.146 178.304 198.146 181.244ZM209.002 175.756V168.28H205.082V189H209.002V186.788C209.954 188.132 211.69 189.252 214.126 189.252C218.102 189.252 221.21 186.032 221.21 181.188C221.21 176.344 218.102 173.236 214.126 173.236C211.774 173.236 209.954 174.328 209.002 175.756ZM217.206 181.188C217.206 184.128 215.218 185.808 213.09 185.808C210.99 185.808 209.002 184.184 209.002 181.244C209.002 178.304 210.99 176.68 213.09 176.68C215.218 176.68 217.206 178.248 217.206 181.188Z" fill="#27272E"/>
<path d="M227.335 186.9C227.335 185.612 226.327 184.604 224.955 184.604C223.527 184.604 222.519 185.612 222.519 186.9C222.519 188.188 223.527 189.196 224.955 189.196C226.327 189.196 227.335 188.188 227.335 186.9Z" fill="#5956E9"/>
<g opacity="0.25" filter="url(#filter0_f)">
<rect x="163" y="121" width="34" height="35" rx="8" fill="#999FAE"/>
</g>
<rect x="160" y="110" width="40" height="40" rx="11.4286" fill="white"/>
<circle cx="172.857" cy="122.857" r="5.71429" fill="#5956E9"/>
<circle cx="172.857" cy="137.143" r="5.71429" fill="#FAB8C4"/>
<circle cx="187.143" cy="122.857" r="5.71429" fill="#FAB8C4"/>
<circle cx="187.143" cy="137.143" r="5.71429" fill="#5956E9"/>
<path d="M41.876 289H43.164V278.878H40.532V280.04H41.876V289ZM45.0024 283.834C45.0024 286.774 45.7304 289 48.5304 289C51.3164 289 52.0444 286.774 52.0444 283.834C52.0444 280.936 51.3164 278.724 48.5304 278.724C45.7304 278.724 45.0024 280.936 45.0024 283.834ZM50.7844 283.834C50.7844 286.018 50.5184 287.838 48.5304 287.838C46.5284 287.838 46.2624 286.018 46.2624 283.834C46.2624 281.734 46.5284 279.886 48.5304 279.886C50.5184 279.886 50.7844 281.734 50.7844 283.834ZM53.4434 283.834C53.4434 286.774 54.1714 289 56.9714 289C59.7574 289 60.4854 286.774 60.4854 283.834C60.4854 280.936 59.7574 278.724 56.9714 278.724C54.1714 278.724 53.4434 280.936 53.4434 283.834ZM59.2254 283.834C59.2254 286.018 58.9594 287.838 56.9714 287.838C54.9694 287.838 54.7034 286.018 54.7034 283.834C54.7034 281.734 54.9694 279.886 56.9714 279.886C58.9594 279.886 59.2254 281.734 59.2254 283.834Z" fill="#999FAE"/>
<path d="M42.716 357.736C41.582 358.072 40.84 358.996 40.84 360.27C40.84 362.104 42.282 363.28 44.41 363.28C46.552 363.28 48.008 362.104 48.008 360.27C48.008 359.01 47.266 358.086 46.118 357.736C47.112 357.344 47.742 356.504 47.742 355.412C47.742 353.942 46.608 352.724 44.41 352.724C42.212 352.724 41.092 353.928 41.092 355.412C41.092 356.546 41.68 357.33 42.716 357.736ZM44.41 357.316C43.178 357.316 42.324 356.63 42.324 355.58C42.324 354.39 43.164 353.788 44.41 353.788C45.684 353.788 46.51 354.404 46.51 355.566C46.51 356.616 45.656 357.316 44.41 357.316ZM44.41 358.296C45.74 358.296 46.748 358.926 46.748 360.228C46.748 361.404 45.852 362.216 44.41 362.216C42.968 362.216 42.058 361.418 42.058 360.228C42.058 358.884 43.108 358.296 44.41 358.296ZM49.35 357.834C49.35 360.774 50.078 363 52.878 363C55.664 363 56.392 360.774 56.392 357.834C56.392 354.936 55.664 352.724 52.878 352.724C50.078 352.724 49.35 354.936 49.35 357.834ZM55.132 357.834C55.132 360.018 54.866 361.838 52.878 361.838C50.876 361.838 50.61 360.018 50.61 357.834C50.61 355.734 50.876 353.886 52.878 353.886C54.866 353.886 55.132 355.734 55.132 357.834Z" fill="#999FAE"/>
<path d="M46.37 429.762C46.2953 429.174 46.0947 428.721 45.768 428.404C45.4507 428.077 45.0073 427.914 44.438 427.914C43.6447 427.914 43.0427 428.222 42.632 428.838C42.2307 429.454 42.03 430.429 42.03 431.764L42.044 432.282C42.184 431.722 42.506 431.279 43.01 430.952C43.514 430.616 44.1067 430.448 44.788 430.448C45.768 430.448 46.5333 430.742 47.084 431.33C47.644 431.918 47.924 432.739 47.924 433.794C47.924 434.41 47.8027 434.97 47.56 435.474C47.3173 435.969 46.944 436.365 46.44 436.664C45.9453 436.953 45.3293 437.098 44.592 437.098C43.1827 437.098 42.212 436.655 41.68 435.768C41.1573 434.881 40.896 433.677 40.896 432.156C40.896 430.401 41.176 429.085 41.736 428.208C42.3053 427.321 43.2293 426.878 44.508 426.878C45.4507 426.878 46.174 427.144 46.678 427.676C47.1913 428.208 47.4947 428.903 47.588 429.762H46.37ZM42.184 433.584C42.184 434.265 42.38 434.839 42.772 435.306C43.1733 435.763 43.7707 435.992 44.564 435.992C45.2173 435.992 45.74 435.801 46.132 435.418C46.524 435.026 46.72 434.48 46.72 433.78C46.72 433.024 46.524 432.45 46.132 432.058C45.74 431.657 45.1987 431.456 44.508 431.456C44.116 431.456 43.7427 431.535 43.388 431.694C43.0333 431.853 42.744 432.095 42.52 432.422C42.296 432.739 42.184 433.127 42.184 433.584ZM49.1433 432.002C49.1433 433.589 49.4046 434.825 49.9273 435.712C50.45 436.599 51.3553 437.042 52.6433 437.042C53.9313 437.042 54.8366 436.599 55.3593 435.712C55.8913 434.825 56.1573 433.589 56.1573 432.002C56.1573 430.434 55.8913 429.207 55.3593 428.32C54.8366 427.433 53.9313 426.99 52.6433 426.99C51.3553 426.99 50.45 427.433 49.9273 428.32C49.4046 429.197 49.1433 430.425 49.1433 432.002ZM54.8973 432.002C54.8973 432.814 54.8366 433.495 54.7153 434.046C54.6033 434.587 54.384 435.021 54.0573 435.348C53.7306 435.675 53.2593 435.838 52.6433 435.838C52.0366 435.838 51.57 435.675 51.2433 435.348C50.9166 435.021 50.6926 434.587 50.5713 434.046C50.4593 433.495 50.4033 432.814 50.4033 432.002C50.4033 431.199 50.4593 430.527 50.5713 429.986C50.6926 429.445 50.9166 429.015 51.2433 428.698C51.57 428.371 52.0366 428.208 52.6433 428.208C53.2593 428.208 53.7306 428.371 54.0573 428.698C54.384 429.015 54.6033 429.445 54.7153 429.986C54.8366 430.527 54.8973 431.199 54.8973 432.002Z" fill="#999FAE"/>
<path d="M40.434 508.732V507.668L45.502 501.06H46.874V507.626H48.33V508.732H46.874V511H45.586V508.732H40.434ZM45.67 502.614L41.778 507.626H45.67V502.614ZM49.1296 506.002C49.1296 507.589 49.391 508.825 49.9136 509.712C50.4363 510.599 51.3416 511.042 52.6296 511.042C53.9176 511.042 54.823 510.599 55.3456 509.712C55.8776 508.825 56.1436 507.589 56.1436 506.002C56.1436 504.434 55.8776 503.207 55.3456 502.32C54.823 501.433 53.9176 500.99 52.6296 500.99C51.3416 500.99 50.4363 501.433 49.9136 502.32C49.391 503.197 49.1296 504.425 49.1296 506.002ZM54.8836 506.002C54.8836 506.814 54.823 507.495 54.7016 508.046C54.5896 508.587 54.3703 509.021 54.0436 509.348C53.717 509.675 53.2456 509.838 52.6296 509.838C52.023 509.838 51.5563 509.675 51.2296 509.348C50.903 509.021 50.679 508.587 50.5576 508.046C50.4456 507.495 50.3896 506.814 50.3896 506.002C50.3896 505.199 50.4456 504.527 50.5576 503.986C50.679 503.445 50.903 503.015 51.2296 502.698C51.5563 502.371 52.023 502.208 52.6296 502.208C53.2456 502.208 53.717 502.371 54.0436 502.698C54.3703 503.015 54.5896 503.445 54.7016 503.986C54.823 504.527 54.8836 505.199 54.8836 506.002Z" fill="#999FAE"/>
<path d="M40.714 584.888H47.448V583.824H42.632C44.438 582.354 47.154 580.212 47.154 577.692C47.154 575.816 45.922 574.696 44.018 574.696C42.198 574.696 40.84 575.816 40.756 577.972H41.988C42.044 576.698 42.716 575.788 44.032 575.788C45.404 575.788 45.894 576.628 45.894 577.748C45.894 579.82 43.374 581.836 40.714 583.978V584.888ZM48.5707 579.834C48.5707 582.774 49.2987 585 52.0987 585C54.8847 585 55.6127 582.774 55.6127 579.834C55.6127 576.936 54.8847 574.724 52.0987 574.724C49.2987 574.724 48.5707 576.936 48.5707 579.834ZM54.3527 579.834C54.3527 582.018 54.0867 583.838 52.0987 583.838C50.0967 583.838 49.8307 582.018 49.8307 579.834C49.8307 577.734 50.0967 575.886 52.0987 575.886C54.0867 575.886 54.3527 577.734 54.3527 579.834Z" fill="#999FAE"/>
<defs>
<filter id="filter0_f" x="139" y="97" width="82" height="83" filterUnits="userSpaceOnUse" color-interpolation-filters="sRGB">
<feFlood flood-opacity="0" result="BackgroundImageFix"/>
<feBlend mode="normal" in="SourceGraphic" in2="BackgroundImageFix" result="shape"/>
<feGaussianBlur stdDeviation="12" result="effect1_foregroundBlur"/>
</filter>
</defs>
</svg>
