<svg width="16" height="18" viewBox="0 0 16 18" fill="none" xmlns="http://www.w3.org/2000/svg">
<g clip-path="url(#clip0)">
<path d="M14.9997 5.99975H0.99975C0.866336 5.99173 0.732739 6.0121 0.607779 6.05952C0.482819 6.10694 0.369339 6.18032 0.274831 6.27483C0.180323 6.36934 0.106938 6.48282 0.0595197 6.60778C0.0121017 6.73274 -0.00826999 6.86634 -0.000250349 6.99975V16.9997C-0.00826999 17.1332 0.0121017 17.2668 0.0595197 17.3917C0.106938 17.5167 0.180323 17.6302 0.274831 17.7247C0.369339 17.8192 0.482819 17.8926 0.607779 17.94C0.732739 17.9874 0.866336 18.0078 0.99975 17.9997H14.9997C15.1332 18.0078 15.2668 17.9874 15.3917 17.94C15.5167 17.8926 15.6302 17.8192 15.7247 17.7247C15.8192 17.6302 15.8926 17.5167 15.94 17.3917C15.9874 17.2668 16.0078 17.1332 15.9998 16.9997V6.99975C16.0078 6.86634 15.9874 6.73274 15.94 6.60778C15.8926 6.48282 15.8192 6.36934 15.7247 6.27483C15.6302 6.18032 15.5167 6.10694 15.3917 6.05952C15.2668 6.0121 15.1332 5.99173 14.9997 5.99975ZM5.99975 14.9997V8.99975L10.9997 11.9997L5.99975 14.9997Z" fill="#5956E9"/>
<path d="M3 2H13C13.2652 2 13.5196 2.10536 13.7071 2.29289C13.8946 2.48043 14 2.73478 14 3V4H2V3C2 2.73478 2.10536 2.48043 2.29289 2.29289C2.48043 2.10536 2.73478 2 3 2V2Z" fill="#FAB8C4"/>
</g>
<defs>
<clipPath id="clip0">
<rect width="16" height="16" fill="white" transform="translate(0 2)"/>
</clipPath>
</defs>
</svg>
