<svg width="24" height="24" viewBox="0 0 24 24" fill="none" xmlns="http://www.w3.org/2000/svg">
<path opacity="0.3" fill-rule="evenodd" clip-rule="evenodd" d="M3 6C2.44772 6 2 6.44772 2 7C2 7.55228 2.44772 8 3 8H5C5.55228 8 6 7.55228 6 7C6 6.44772 5.55228 6 5 6H3ZM0 12C0 11.4477 0.447715 11 1 11H5C5.55228 11 6 11.4477 6 12C6 12.5523 5.55228 13 5 13H1C0.447715 13 0 12.5523 0 12ZM3 17C3 16.4477 3.44772 16 4 16H5C5.55228 16 6 16.4477 6 17C6 17.5523 5.55228 18 5 18H4C3.44772 18 3 17.5523 3 17Z" fill="black"/>
<path d="M19.8409 3.50393V3.50207C19.5214 3.18088 19.0871 3.00019 18.6341 3H10.707C9.76551 3.00307 9.00307 3.76551 9 4.70702V19.2911C9.00019 19.7441 9.18088 20.1784 9.50207 20.4979C9.82111 20.8187 10.2547 20.9993 10.707 21H18.6359C19.0883 20.9993 19.5219 20.8187 19.8409 20.4979C20.1616 20.1789 20.3423 19.7453 20.343 19.293V4.70888C20.3423 4.25651 20.1616 3.82297 19.8409 3.50393ZM14.6715 19.8415C14.4168 19.8415 14.2103 19.6351 14.2103 19.3804C14.2103 19.1257 14.4168 18.9192 14.6715 18.9192C14.9262 18.9192 15.1326 19.1257 15.1326 19.3804C15.1326 19.6351 14.9262 19.8415 14.6715 19.8415ZM18.9874 16.9463C18.9874 17.5625 18.4879 18.062 17.8717 18.062H11.4694C10.8532 18.062 10.3537 17.5625 10.3537 16.9463V6.07748C10.3537 5.46129 10.8532 4.96178 11.4694 4.96178H17.8736C18.4897 4.96178 18.9893 5.46129 18.9893 6.07748L18.9874 16.9463Z" fill="black"/>
</svg>
