<svg width="24" height="25" viewBox="0 0 24 25" fill="none" xmlns="http://www.w3.org/2000/svg">
<path opacity="0.3" d="M12 11.5C9.79086 11.5 8 9.70914 8 7.5C8 5.29086 9.79086 3.5 12 3.5C14.2091 3.5 16 5.29086 16 7.5C16 9.70914 14.2091 11.5 12 11.5Z" fill="#292930"/>
<path d="M3.00065 20.6992C3.38826 15.9265 7.26191 13.5 11.9833 13.5C16.7712 13.5 20.7049 15.7932 20.9979 20.7C21.0096 20.8955 20.9979 21.5 20.2467 21.5C16.5411 21.5 11.0347 21.5 3.7275 21.5C3.47671 21.5 2.97954 20.9592 3.00065 20.6992Z" fill="#292930"/>
</svg>
