<svg width="56" height="57" viewBox="0 0 56 57" fill="none" xmlns="http://www.w3.org/2000/svg">
<path d="M40 0.300781H16C7.16344 0.300781 0 7.46422 0 16.3008V40.3008C0 49.1373 7.16344 56.3008 16 56.3008H40C48.8366 56.3008 56 49.1373 56 40.3008V16.3008C56 7.46422 48.8366 0.300781 40 0.300781Z" fill="#ECF2F6"/>
<path d="M18 26.3008C22.4183 26.3008 26 22.7191 26 18.3008C26 13.8825 22.4183 10.3008 18 10.3008C13.5817 10.3008 10 13.8825 10 18.3008C10 22.7191 13.5817 26.3008 18 26.3008Z" fill="#4E3EB8"/>
<path d="M18 46.3008C22.4183 46.3008 26 42.7191 26 38.3008C26 33.8825 22.4183 30.3008 18 30.3008C13.5817 30.3008 10 33.8825 10 38.3008C10 42.7191 13.5817 46.3008 18 46.3008Z" fill="#D761AD"/>
<path d="M38 26.3008C42.4183 26.3008 46 22.7191 46 18.3008C46 13.8825 42.4183 10.3008 38 10.3008C33.5817 10.3008 30 13.8825 30 18.3008C30 22.7191 33.5817 26.3008 38 26.3008Z" fill="#D761AD"/>
<path d="M38 46.3008C42.4183 46.3008 46 42.7191 46 38.3008C46 33.8825 42.4183 30.3008 38 30.3008C33.5817 30.3008 30 33.8825 30 38.3008C30 42.7191 33.5817 46.3008 38 46.3008Z" fill="#4E3EB8"/>
</svg>
