<svg width="56" height="57" viewBox="0 0 56 57" fill="none" xmlns="http://www.w3.org/2000/svg">
<path d="M40 0.300781H16C7.16344 0.300781 0 7.46422 0 16.3008V40.3008C0 49.1373 7.16344 56.3008 16 56.3008H40C48.8366 56.3008 56 49.1373 56 40.3008V16.3008C56 7.46422 48.8366 0.300781 40 0.300781Z" fill="#ECF2F6"/>
<path d="M16 52.3008C22.6274 52.3008 28 46.9282 28 40.3008C28 33.6734 22.6274 28.3008 16 28.3008C9.37258 28.3008 4 33.6734 4 40.3008C4 46.9282 9.37258 52.3008 16 52.3008Z" fill="#D761AD"/>
<path d="M40 28.3008C46.6274 28.3008 52 22.9282 52 16.3008C52 9.67336 46.6274 4.30078 40 4.30078C33.3726 4.30078 28 9.67336 28 16.3008C28 22.9282 33.3726 28.3008 40 28.3008Z" fill="#4E3EB8"/>
</svg>
