<svg width="989" height="701" viewBox="0 0 989 701" fill="none" xmlns="http://www.w3.org/2000/svg">
<path d="M499.5 449.5C499.5 587.572 387.794 699.5 250 699.5C112.206 699.5 0.5 587.572 0.5 449.5C0.5 311.428 112.206 199.5 250 199.5C387.794 199.5 499.5 311.428 499.5 449.5Z" stroke="#E3E6E9"/>
<path d="M893 699.435C945.707 699.435 988.435 656.707 988.435 604C988.435 551.293 945.707 508.565 893 508.565C840.292 508.565 797.564 551.293 797.564 604C797.564 656.707 840.292 699.435 893 699.435Z" stroke="#E3E6E9" stroke-width="1.12941"/>
<path d="M445 276C464.33 276 480 260.33 480 241C480 221.67 464.33 206 445 206C425.67 206 410 221.67 410 241C410 260.33 425.67 276 445 276Z" fill="#D761AD"/>
<path d="M854.646 700.354L154.646 0.353516" stroke="#E3E6E9"/>
</svg>
