<svg width="182" height="50" viewBox="0 0 182 50" fill="none" xmlns="http://www.w3.org/2000/svg">
<g clip-path="url(#clip0)">
<path d="M68.852 10.456V30H64.932V10.456H68.852ZM70.933 20.2C70.933 18.2773 71.3623 16.56 72.221 15.048C73.0983 13.5173 74.2836 12.332 75.777 11.492C77.289 10.6333 78.9783 10.204 80.845 10.204C83.029 10.204 84.9423 10.764 86.585 11.884C88.2276 13.004 89.3756 14.5533 90.029 16.532H85.521C85.073 15.5987 84.4383 14.8987 83.617 14.432C82.8143 13.9653 81.881 13.732 80.817 13.732C79.6783 13.732 78.661 14.0027 77.765 14.544C76.8876 15.0667 76.197 15.8133 75.693 16.784C75.2076 17.7547 74.965 18.8933 74.965 20.2C74.965 21.488 75.2076 22.6267 75.693 23.616C76.197 24.5867 76.8876 25.3427 77.765 25.884C78.661 26.4067 79.6783 26.668 80.817 26.668C81.881 26.668 82.8143 26.4347 83.617 25.968C84.4383 25.4827 85.073 24.7733 85.521 23.84H90.029C89.3756 25.8373 88.2276 27.396 86.585 28.516C84.961 29.6173 83.0476 30.168 80.845 30.168C78.9783 30.168 77.289 29.748 75.777 28.908C74.2836 28.0493 73.0983 26.864 72.221 25.352C71.3623 23.84 70.933 22.1227 70.933 20.2ZM96.4572 13.62V18.52H103.037V21.628H96.4572V26.808H103.877V30H92.5372V10.428H103.877V13.62H96.4572ZM116.68 30L112.367 22.384H110.519V30H106.599V10.456H113.936C115.448 10.456 116.736 10.7267 117.799 11.268C118.864 11.7907 119.657 12.5093 120.18 13.424C120.721 14.32 120.991 15.328 120.991 16.448C120.991 17.736 120.618 18.9027 119.872 19.948C119.125 20.9747 118.014 21.684 116.54 22.076L121.216 30H116.68ZM110.519 19.444H113.795C114.859 19.444 115.653 19.192 116.175 18.688C116.698 18.1653 116.959 17.4467 116.959 16.532C116.959 15.636 116.698 14.9453 116.175 14.46C115.653 13.956 114.859 13.704 113.795 13.704H110.519V19.444ZM132.769 30.196C130.94 30.196 129.26 29.7667 127.729 28.908C126.198 28.0493 124.985 26.864 124.089 25.352C123.193 23.8213 122.745 22.0947 122.745 20.172C122.745 18.268 123.193 16.56 124.089 15.048C124.985 13.5173 126.198 12.3227 127.729 11.464C129.26 10.6053 130.94 10.176 132.769 10.176C134.617 10.176 136.297 10.6053 137.809 11.464C139.34 12.3227 140.544 13.5173 141.421 15.048C142.317 16.56 142.765 18.268 142.765 20.172C142.765 22.0947 142.317 23.8213 141.421 25.352C140.544 26.864 139.34 28.0493 137.809 28.908C136.278 29.7667 134.598 30.196 132.769 30.196ZM132.769 26.696C133.945 26.696 134.981 26.4347 135.877 25.912C136.773 25.3707 137.473 24.6053 137.977 23.616C138.481 22.6267 138.733 21.4787 138.733 20.172C138.733 18.8653 138.481 17.7267 137.977 16.756C137.473 15.7667 136.773 15.0107 135.877 14.488C134.981 13.9653 133.945 13.704 132.769 13.704C131.593 13.704 130.548 13.9653 129.633 14.488C128.737 15.0107 128.037 15.7667 127.533 16.756C127.029 17.7267 126.777 18.8653 126.777 20.172C126.777 21.4787 127.029 22.6267 127.533 23.616C128.037 24.6053 128.737 25.3707 129.633 25.912C130.548 26.4347 131.593 26.696 132.769 26.696ZM143.889 20.2C143.889 18.2773 144.319 16.56 145.177 15.048C146.055 13.5173 147.24 12.332 148.733 11.492C150.245 10.6333 151.935 10.204 153.801 10.204C155.985 10.204 157.899 10.764 159.541 11.884C161.184 13.004 162.332 14.5533 162.985 16.532H158.477C158.029 15.5987 157.395 14.8987 156.573 14.432C155.771 13.9653 154.837 13.732 153.773 13.732C152.635 13.732 151.617 14.0027 150.721 14.544C149.844 15.0667 149.153 15.8133 148.649 16.784C148.164 17.7547 147.921 18.8933 147.921 20.2C147.921 21.488 148.164 22.6267 148.649 23.616C149.153 24.5867 149.844 25.3427 150.721 25.884C151.617 26.4067 152.635 26.668 153.773 26.668C154.837 26.668 155.771 26.4347 156.573 25.968C157.395 25.4827 158.029 24.7733 158.477 23.84H162.985C162.332 25.8373 161.184 27.396 159.541 28.516C157.917 29.6173 156.004 30.168 153.801 30.168C151.935 30.168 150.245 29.748 148.733 28.908C147.24 28.0493 146.055 26.864 145.177 25.352C144.319 23.84 143.889 22.1227 143.889 20.2ZM176.526 30L169.414 21.292V30H165.494V10.456H169.414V19.22L176.526 10.456H181.258L173.194 20.144L181.482 30H176.526Z" fill="#292930"/>
<path d="M108.146 38.42C108.417 38.0653 108.785 37.7667 109.252 37.524C109.719 37.2813 110.246 37.16 110.834 37.16C111.506 37.16 112.117 37.328 112.668 37.664C113.228 37.9907 113.667 38.4527 113.984 39.05C114.301 39.6473 114.46 40.3333 114.46 41.108C114.46 41.8827 114.301 42.578 113.984 43.194C113.667 43.8007 113.228 44.2767 112.668 44.622C112.117 44.958 111.506 45.126 110.834 45.126C110.246 45.126 109.723 45.0093 109.266 44.776C108.809 44.5333 108.435 44.2347 108.146 43.88V48.668H106.55V37.286H108.146V38.42ZM112.836 41.108C112.836 40.576 112.724 40.1187 112.5 39.736C112.285 39.344 111.996 39.05 111.632 38.854C111.277 38.6487 110.895 38.546 110.484 38.546C110.083 38.546 109.7 38.6487 109.336 38.854C108.981 39.0593 108.692 39.358 108.468 39.75C108.253 40.142 108.146 40.604 108.146 41.136C108.146 41.668 108.253 42.1347 108.468 42.536C108.692 42.928 108.981 43.2267 109.336 43.432C109.7 43.6373 110.083 43.74 110.484 43.74C110.895 43.74 111.277 43.6373 111.632 43.432C111.996 43.2173 112.285 42.9093 112.5 42.508C112.724 42.1067 112.836 41.64 112.836 41.108ZM117.074 38.406C117.308 38.014 117.616 37.7107 117.998 37.496C118.39 37.272 118.852 37.16 119.384 37.16V38.812H118.978C118.353 38.812 117.877 38.9707 117.55 39.288C117.233 39.6053 117.074 40.156 117.074 40.94V45H115.478V37.286H117.074V38.406ZM123.637 45.126C122.909 45.126 122.251 44.9627 121.663 44.636C121.075 44.3 120.613 43.8333 120.277 43.236C119.941 42.6293 119.773 41.9293 119.773 41.136C119.773 40.352 119.946 39.6567 120.291 39.05C120.637 38.4433 121.108 37.9767 121.705 37.65C122.303 37.3233 122.97 37.16 123.707 37.16C124.445 37.16 125.112 37.3233 125.709 37.65C126.307 37.9767 126.778 38.4433 127.123 39.05C127.469 39.6567 127.641 40.352 127.641 41.136C127.641 41.92 127.464 42.6153 127.109 43.222C126.755 43.8287 126.269 44.3 125.653 44.636C125.047 44.9627 124.375 45.126 123.637 45.126ZM123.637 43.74C124.048 43.74 124.431 43.642 124.785 43.446C125.149 43.25 125.443 42.956 125.667 42.564C125.891 42.172 126.003 41.696 126.003 41.136C126.003 40.576 125.896 40.1047 125.681 39.722C125.467 39.33 125.182 39.036 124.827 38.84C124.473 38.644 124.09 38.546 123.679 38.546C123.269 38.546 122.886 38.644 122.531 38.84C122.186 39.036 121.911 39.33 121.705 39.722C121.5 40.1047 121.397 40.576 121.397 41.136C121.397 41.9667 121.607 42.6107 122.027 43.068C122.457 43.516 122.993 43.74 123.637 43.74ZM130.521 38.588V42.858C130.521 43.1473 130.586 43.3573 130.717 43.488C130.857 43.6093 131.09 43.67 131.417 43.67H132.397V45H131.137C130.418 45 129.868 44.832 129.485 44.496C129.102 44.16 128.911 43.614 128.911 42.858V38.588H128.001V37.286H128.911V35.368H130.521V37.286H132.397V38.588H130.521ZM136.654 45.126C135.926 45.126 135.268 44.9627 134.68 44.636C134.092 44.3 133.63 43.8333 133.294 43.236C132.958 42.6293 132.79 41.9293 132.79 41.136C132.79 40.352 132.963 39.6567 133.308 39.05C133.653 38.4433 134.125 37.9767 134.722 37.65C135.319 37.3233 135.987 37.16 136.724 37.16C137.461 37.16 138.129 37.3233 138.726 37.65C139.323 37.9767 139.795 38.4433 140.14 39.05C140.485 39.6567 140.658 40.352 140.658 41.136C140.658 41.92 140.481 42.6153 140.126 43.222C139.771 43.8287 139.286 44.3 138.67 44.636C138.063 44.9627 137.391 45.126 136.654 45.126ZM136.654 43.74C137.065 43.74 137.447 43.642 137.802 43.446C138.166 43.25 138.46 42.956 138.684 42.564C138.908 42.172 139.02 41.696 139.02 41.136C139.02 40.576 138.913 40.1047 138.698 39.722C138.483 39.33 138.199 39.036 137.844 38.84C137.489 38.644 137.107 38.546 136.696 38.546C136.285 38.546 135.903 38.644 135.548 38.84C135.203 39.036 134.927 39.33 134.722 39.722C134.517 40.1047 134.414 40.576 134.414 41.136C134.414 41.9667 134.624 42.6107 135.044 43.068C135.473 43.516 136.01 43.74 136.654 43.74ZM143.538 38.588V42.858C143.538 43.1473 143.603 43.3573 143.734 43.488C143.874 43.6093 144.107 43.67 144.434 43.67H145.414V45H144.154C143.435 45 142.884 44.832 142.502 44.496C142.119 44.16 141.928 43.614 141.928 42.858V38.588H141.018V37.286H141.928V35.368H143.538V37.286H145.414V38.588H143.538ZM153.269 37.286L148.537 48.626H146.885L148.453 44.874L145.415 37.286H147.193L149.363 43.166L151.617 37.286H153.269ZM155.509 38.42C155.78 38.0653 156.149 37.7667 156.615 37.524C157.082 37.2813 157.609 37.16 158.197 37.16C158.869 37.16 159.481 37.328 160.031 37.664C160.591 37.9907 161.03 38.4527 161.347 39.05C161.665 39.6473 161.823 40.3333 161.823 41.108C161.823 41.8827 161.665 42.578 161.347 43.194C161.03 43.8007 160.591 44.2767 160.031 44.622C159.481 44.958 158.869 45.126 158.197 45.126C157.609 45.126 157.087 45.0093 156.629 44.776C156.172 44.5333 155.799 44.2347 155.509 43.88V48.668H153.913V37.286H155.509V38.42ZM160.199 41.108C160.199 40.576 160.087 40.1187 159.863 39.736C159.649 39.344 159.359 39.05 158.995 38.854C158.641 38.6487 158.258 38.546 157.847 38.546C157.446 38.546 157.063 38.6487 156.699 38.854C156.345 39.0593 156.055 39.358 155.831 39.75C155.617 40.142 155.509 40.604 155.509 41.136C155.509 41.668 155.617 42.1347 155.831 42.536C156.055 42.928 156.345 43.2267 156.699 43.432C157.063 43.6373 157.446 43.74 157.847 43.74C158.258 43.74 158.641 43.6373 158.995 43.432C159.359 43.2173 159.649 42.9093 159.863 42.508C160.087 42.1067 160.199 41.64 160.199 41.108ZM163.653 36.264C163.364 36.264 163.121 36.166 162.925 35.97C162.729 35.774 162.631 35.5313 162.631 35.242C162.631 34.9527 162.729 34.71 162.925 34.514C163.121 34.318 163.364 34.22 163.653 34.22C163.933 34.22 164.171 34.318 164.367 34.514C164.563 34.71 164.661 34.9527 164.661 35.242C164.661 35.5313 164.563 35.774 164.367 35.97C164.171 36.166 163.933 36.264 163.653 36.264ZM164.437 37.286V45H162.841V37.286H164.437ZM169.865 37.16C170.472 37.16 171.013 37.286 171.489 37.538C171.974 37.79 172.352 38.1633 172.623 38.658C172.894 39.1527 173.029 39.75 173.029 40.45V45H171.447V40.688C171.447 39.9973 171.274 39.47 170.929 39.106C170.584 38.7327 170.112 38.546 169.515 38.546C168.918 38.546 168.442 38.7327 168.087 39.106C167.742 39.47 167.569 39.9973 167.569 40.688V45H165.973V37.286H167.569V38.168C167.83 37.8507 168.162 37.6033 168.563 37.426C168.974 37.2487 169.408 37.16 169.865 37.16ZM177.613 37.16C178.21 37.16 178.737 37.2813 179.195 37.524C179.661 37.7573 180.025 38.0513 180.287 38.406V37.286H181.897V45.126C181.897 45.8353 181.747 46.4653 181.449 47.016C181.15 47.576 180.716 48.0147 180.147 48.332C179.587 48.6493 178.915 48.808 178.131 48.808C177.085 48.808 176.217 48.5607 175.527 48.066C174.836 47.5807 174.444 46.918 174.351 46.078H175.933C176.054 46.4793 176.311 46.8013 176.703 47.044C177.104 47.296 177.58 47.422 178.131 47.422C178.775 47.422 179.293 47.226 179.685 46.834C180.086 46.442 180.287 45.8727 180.287 45.126V43.838C180.016 44.202 179.647 44.51 179.181 44.762C178.723 45.0047 178.201 45.126 177.613 45.126C176.941 45.126 176.325 44.958 175.765 44.622C175.214 44.2767 174.775 43.8007 174.449 43.194C174.131 42.578 173.973 41.8827 173.973 41.108C173.973 40.3333 174.131 39.6473 174.449 39.05C174.775 38.4527 175.214 37.9907 175.765 37.664C176.325 37.328 176.941 37.16 177.613 37.16ZM180.287 41.136C180.287 40.604 180.175 40.142 179.951 39.75C179.736 39.358 179.451 39.0593 179.097 38.854C178.742 38.6487 178.359 38.546 177.949 38.546C177.538 38.546 177.155 38.6487 176.801 38.854C176.446 39.05 176.157 39.344 175.933 39.736C175.718 40.1187 175.611 40.576 175.611 41.108C175.611 41.64 175.718 42.1067 175.933 42.508C176.157 42.9093 176.446 43.2173 176.801 43.432C177.165 43.6373 177.547 43.74 177.949 43.74C178.359 43.74 178.742 43.6373 179.097 43.432C179.451 43.2267 179.736 42.928 179.951 42.536C180.175 42.1347 180.287 41.668 180.287 41.136Z" fill="#999FAE"/>
<path opacity="0.8" d="M24 14.469L48 27.7133L24 40.8454L2.07875e-07 27.7133L24 14.469Z" fill="#4E3EB8"/>
<path opacity="0.8" d="M24 7.11552L48 20.3598L24 33.4919L2.07875e-07 20.3598L24 7.11552Z" fill="#D761AD"/>
<path opacity="0.8" d="M24 0.262986L48 13.5073L24 26.6393L2.07875e-07 13.5073L24 0.262986Z" fill="#FFDB72"/>
</g>
<defs>
<clipPath id="clip0">
<rect width="182" height="50" fill="white"/>
</clipPath>
</defs>
</svg>
