<svg width="24" height="24" viewBox="0 0 24 24" fill="none" xmlns="http://www.w3.org/2000/svg">
<path opacity="0.3" fill-rule="evenodd" clip-rule="evenodd" d="M5 3C3.34315 3 2 4.34315 2 6V15C2 16.6569 3.34315 18 5 18H9.01653L11.0887 21.1255C11.5036 21.7513 12.4344 21.7137 12.7975 21.0566L14.4862 18H19C20.6569 18 22 16.6569 22 15V6C22 4.34315 20.6569 3 19 3H5Z" fill="#27272E"/>
<path fill-rule="evenodd" clip-rule="evenodd" d="M6 7H15C15.5523 7 16 7.44772 16 8C16 8.55228 15.5523 9 15 9H6C5.44772 9 5 8.55228 5 8C5 7.44772 5.44772 7 6 7ZM6 11H11C11.5523 11 12 11.4477 12 12C12 12.5523 11.5523 13 11 13H6C5.44772 13 5 12.5523 5 12C5 11.4477 5.44772 11 6 11Z" fill="#27272E"/>
</svg>
