<svg width="1440" height="511" viewBox="0 0 1440 511" fill="none" xmlns="http://www.w3.org/2000/svg">
<path fill-rule="evenodd" clip-rule="evenodd" d="M-14 333.419H32.5C79 333.419 172 333.419 265 333.419C358 333.419 451 333.419 544 265.075C637 198.284 730 64.703 823 19.6582C916 -25.3867 1009 19.6582 1102 64.703C1195 109.748 1288 153.239 1381 165.666C1474 176.538 1567 153.239 1660 109.748C1753 64.703 1846 -2.0876 1939 30.5311C2032 64.703 2125 198.284 2171.5 265.075L2218 333.419V467H2171.5C2125 467 2032 467 1939 467C1846 467 1753 467 1660 467C1567 467 1474 467 1381 467C1288 467 1195 467 1102 467C1009 467 916 467 823 467C730 467 637 467 544 467C451 467 358 467 265 467C172 467 79 467 32.5 467H-14V333.419Z" stroke="white" stroke-width="2"/>
<path fill-rule="evenodd" clip-rule="evenodd" d="M-42 376.419H4.5C51 376.419 144 376.419 237 376.419C330 376.419 423 376.419 516 308.075C609 241.284 702 107.703 795 62.6582C888 17.6133 981 62.6582 1074 107.703C1167 152.748 1260 196.239 1353 208.666C1446 219.538 1539 196.239 1632 152.748C1725 107.703 1818 40.9124 1911 73.5311C2004 107.703 2097 241.284 2143.5 308.075L2190 376.419V510H2143.5C2097 510 2004 510 1911 510C1818 510 1725 510 1632 510C1539 510 1446 510 1353 510C1260 510 1167 510 1074 510C981 510 888 510 795 510C702 510 609 510 516 510C423 510 330 510 237 510C144 510 51 510 4.5 510H-42V376.419Z" stroke="white" stroke-opacity="0.4" stroke-width="2" style="mix-blend-mode:overlay"/>
</svg>
